<svg xmlns="http://www.w3.org/2000/svg" xmlns:xlink="http://www.w3.org/1999/xlink" version="1.1" x="0px" y="0px" viewBox="0 0 32 40" enable-background="new 0 0 32 32" xml:space="preserve"><path fill-rule="evenodd" clip-rule="evenodd" d="M26,27c-2.3,0-3.5-2.2-4.6-4.2C20.1,20.3,18.9,18,16,18c-2.9,0-4.1,2.3-5.4,4.8  C9.5,24.8,8.3,27,6,27c-4.5,0-5-8-5-14c0-4.4,3.6-8,8-8c1,0,1.9,0.3,2.8,1h8.3C21.1,5.3,22,5,23,5c4.4,0,8,3.6,8,8  C31,19,30.5,27,26,27z M23,7c-0.6,0-1.2,0.3-1.9,0.8L20.9,8h-9.7l-0.3-0.2C10.2,7.3,9.6,7,9,7c-3.3,0-6,2.7-6,6c0,10.4,1.9,12,3,12  c1,0,1.8-1.2,2.8-3.2c1.4-2.6,3.1-5.8,7.2-5.8c4.1,0,5.8,3.2,7.2,5.8c1.1,2,1.8,3.2,2.8,3.2c1.1,0,3-1.6,3-12C29,9.7,26.3,7,23,7z   M27,15c-0.6,0-1-0.4-1-1c0-0.6,0.4-1,1-1c0.6,0,1,0.4,1,1C28,14.6,27.6,15,27,15z M24,18c-0.6,0-1-0.4-1-1s0.4-1,1-1  c0.6,0,1,0.4,1,1S24.6,18,24,18z M24,12c-0.6,0-1-0.4-1-1c0-0.6,0.4-1,1-1c0.6,0,1,0.4,1,1C25,11.6,24.6,12,24,12z M21,15  c-0.6,0-1-0.4-1-1c0-0.6,0.4-1,1-1c0.6,0,1,0.4,1,1C22,14.6,21.6,15,21,15z M9,17H7v-2H5v-2h2v-2h2v2h2v2H9V17z"/><text x="0" y="47" fill="#000000" font-size="5px" font-weight="bold" font-family="'Helvetica Neue', Helvetica, Arial-Unicode, Arial, Sans-serif">Created by Aleksey Popov</text><text x="0" y="52" fill="#000000" font-size="5px" font-weight="bold" font-family="'Helvetica Neue', Helvetica, Arial-Unicode, Arial, Sans-serif">from the Noun Project</text></svg>